<svg width="28" height="30" viewBox="0 0 28 30" fill="none" xmlns="http://www.w3.org/2000/svg">
<path d="M27.5804 24.8517L21.9141 15.0491H9.53956L24.7759 6.26337C25.9984 5.55789 26.5747 4.16928 26.2096 2.80722C25.8445 1.44515 24.65 0.530121 23.2387 0.530121H11.9048L4.71675 12.9647L3.80058 9.5491H0.903809L4.60485 23.3458H7.50161L6.40641 19.2638L23.3772 29.0497C23.8667 29.3319 24.3983 29.4702 24.9256 29.4702C25.7145 29.4702 26.4922 29.1601 27.0908 28.5622C28.0895 27.5647 28.2853 26.0741 27.5804 24.8531V24.8517ZM13.5203 3.3241H23.2387C23.3031 3.3241 23.4527 3.3241 23.5087 3.53086C23.5646 3.73761 23.4345 3.81165 23.3786 3.84378L8.14083 12.6295L13.5203 3.3241ZM25.113 26.5854C24.9619 26.7363 24.8333 26.6608 24.7773 26.6301C20.23 24.008 13.8127 20.3073 9.53956 17.843H20.2986L25.1578 26.2487C25.1899 26.3046 25.2655 26.4345 25.113 26.5854Z" fill="#288B79"/>
</svg>
